<?xml version="1.0" encoding="utf-8"?>
<!-- Generator: Adobe Illustrator 18.1.1, SVG Export Plug-In . SVG Version: 6.00 Build 0)  -->
<svg version="1.1" id="Layer_1" xmlns="http://www.w3.org/2000/svg" xmlns:xlink="http://www.w3.org/1999/xlink" x="0px" y="0px"
	 viewBox="-309 360.5 100 100" enable-background="new -309 360.5 100 100" xml:space="preserve">
<g id="Layer_1_1_">
	<circle fill="#21201E" cx="306" cy="396" r="306"/>
</g>
<g id="Layer_2">
	<g>
		<line fill="none" stroke="#FFFFFF" stroke-width="7" stroke-miterlimit="10" x1="357.7" y1="511" x2="490.8" y2="282.5"/>
		<g>
			<polyline fill="none" stroke="#FFFFFF" stroke-width="7" stroke-miterlimit="10" points="486.7,289.6 357.7,511 357.7,281 
				237.2,396 116.8,281 116.8,511 			"/>
			<line fill="none" stroke="#FFFFFF" stroke-width="11" stroke-miterlimit="10" x1="486.8" y1="286.3" x2="360.2" y2="503.6"/>
		</g>
	</g>
	<line fill="none" stroke="#FFFFFF" stroke-width="11" stroke-miterlimit="10" x1="360.2" y1="503.6" x2="493.2" y2="275.2"/>
</g>
<g>
	<g id="Layer_1_2_">
		<g>
			<circle fill="#21201E" cx="-259" cy="410.5" r="44"/>
		</g>
	</g>
	<g id="Layer_2_1_">
		<g>
			<g>
				
					<rect x="-242.5" y="391.5" transform="matrix(0.8641 0.5033 -0.5033 0.8641 173.7678 177.5954)" fill="#FFFFFF" width="1" height="38.1"/>
			</g>
			<g>
				<g>
					<polygon fill="#FFFFFF" points="-252.1,428.9 -252.1,395.1 -268.9,411.2 -285.7,395.1 -285.7,427 -286.7,427 -286.7,392.7 
						-268.9,409.8 -251.1,392.7 -251.1,425.1 -233.4,394.9 -232.6,395.4 					"/>
				</g>
				<g>
					
						<rect x="-242.9" y="392.2" transform="matrix(0.8641 0.5034 -0.5034 0.8641 173.631 177.6337)" fill="#FFFFFF" width="1.6" height="36.2"/>
				</g>
			</g>
		</g>
		<g>
			
				<rect x="-242.4" y="390.5" transform="matrix(0.8641 0.5034 -0.5034 0.8641 173.2945 177.2935)" fill="#FFFFFF" width="1.6" height="38"/>
		</g>
	</g>
</g>
</svg>
